<svg xmlns="http://www.w3.org/2000/svg" xmlns:xlink="http://www.w3.org/1999/xlink" width="400" zoomAndPan="magnify" viewBox="0 0 300 374.999991" height="500" preserveAspectRatio="xMidYMid meet" version="1.0"><defs><clipPath id="44802661da"><path d="M 8.523438 0 L 291.273438 0 L 291.273438 375 L 8.523438 375 Z M 8.523438 0 " clip-rule="nonzero"/></clipPath></defs><g clip-path="url(#44802661da)"><path fill="#038310" d="M 247.882812 145.734375 L 245.28125 145.734375 L 245.28125 95.261719 C 245.28125 42.738281 202.539062 0 149.996094 0 C 97.453125 0 54.714844 42.738281 54.714844 95.269531 L 54.714844 145.746094 L 52.113281 145.746094 C 28.101562 145.746094 8.558594 165.277344 8.558594 189.300781 L 8.558594 331.457031 C 8.558594 355.480469 28.101562 375.011719 52.113281 375.011719 L 247.871094 375.011719 C 271.882812 375.011719 291.425781 355.480469 291.425781 331.457031 L 291.425781 189.289062 C 291.4375 165.269531 271.894531 145.734375 247.882812 145.734375 Z M 63.125 95.269531 C 63.125 47.367188 102.09375 8.398438 149.996094 8.398438 C 197.902344 8.398438 236.867188 47.367188 236.867188 95.269531 L 236.867188 145.746094 L 204.800781 145.746094 L 204.800781 95.722656 C 204.800781 65.507812 180.210938 40.917969 149.996094 40.917969 C 119.78125 40.917969 95.195312 65.507812 95.195312 95.722656 L 95.195312 145.746094 L 63.125 145.746094 Z M 196.402344 145.734375 L 103.59375 145.734375 L 103.59375 95.710938 C 103.59375 70.125 124.410156 49.296875 149.996094 49.296875 C 175.582031 49.296875 196.402344 70.113281 196.402344 95.710938 Z M 283.015625 331.445312 C 283.015625 350.816406 267.253906 366.601562 247.871094 366.601562 L 52.113281 366.601562 C 32.738281 366.601562 16.96875 350.816406 16.96875 331.445312 L 16.96875 189.289062 C 16.96875 169.917969 32.730469 154.136719 52.113281 154.136719 L 247.871094 154.136719 C 267.242188 154.136719 283.015625 169.917969 283.015625 189.289062 Z M 283.015625 331.445312 " fill-opacity="1" fill-rule="nonzero"/></g><path fill="#038310" d="M 174.929688 270.472656 C 174.929688 270.460938 174.929688 270.460938 174.929688 270.460938 C 182.515625 261.910156 185.152344 250.070312 181.96875 238.777344 C 178.699219 227.164062 169.65625 218.636719 157.796875 215.945312 C 147.640625 213.644531 137.226562 215.957031 129.242188 222.300781 C 121.261719 228.664062 116.6875 238.167969 116.6875 248.367188 C 116.6875 258.214844 121.003906 267.515625 128.535156 273.878906 C 130.078125 275.175781 130.625 277.050781 129.949219 278.644531 L 121.539062 298.53125 C 120.113281 301.894531 120.46875 305.730469 122.484375 308.785156 C 124.507812 311.828125 127.894531 313.648438 131.558594 313.648438 L 168.449219 313.648438 C 172.113281 313.648438 175.496094 311.839844 177.511719 308.785156 C 179.535156 305.722656 179.890625 301.894531 178.464844 298.511719 L 170.152344 278.871094 C 169.402344 277.136719 169.980469 275.101562 171.597656 273.738281 C 172.777344 272.722656 173.890625 271.628906 174.929688 270.472656 Z M 162.40625 282.160156 L 170.730469 301.777344 C 171.191406 302.902344 170.730469 303.792969 170.515625 304.136719 C 170.289062 304.457031 169.648438 305.238281 168.449219 305.238281 L 131.558594 305.238281 C 130.359375 305.238281 129.714844 304.457031 129.488281 304.136719 C 129.277344 303.792969 128.816406 302.902344 129.285156 301.800781 L 137.6875 281.9375 C 139.808594 276.941406 138.308594 271.125 133.96875 267.449219 C 128.332031 262.683594 125.097656 255.730469 125.097656 248.367188 C 125.097656 240.738281 128.515625 233.636719 134.492188 228.878906 C 138.941406 225.320312 144.40625 223.46875 150.0625 223.46875 C 152.011719 223.46875 153.972656 223.683594 155.933594 224.144531 C 164.75 226.144531 171.46875 232.46875 173.890625 241.0625 C 176.324219 249.707031 174.414062 258.394531 168.652344 264.898438 C 167.878906 265.757812 167.054688 266.570312 166.164062 267.332031 C 161.75 271.070312 160.238281 277.039062 162.40625 282.160156 Z M 162.40625 282.160156 " fill-opacity="1" fill-rule="nonzero"/></svg>