<svg preserveAspectRatio="none" width="100%" height="100%" overflow="visible" style="display: block;" viewBox="0 0 14.0401 14.3268" fill="none" xmlns="http://www.w3.org/2000/svg">
<g id="Group">
<path id="Vector" d="M7.16326 5.8609V8.63508H11.0184C10.8492 9.52725 10.3411 10.2827 9.57924 10.7906L11.9041 12.5945C13.2586 11.3442 14.0401 9.50777 14.0401 7.32621C14.0401 6.81827 13.9945 6.32981 13.9098 5.86098L7.16326 5.8609Z" fill="var(--fill-0, #4285F4)"/>
<path id="Vector_2" d="M3.14869 8.52683L2.62435 8.9282L0.76836 10.3739C1.94706 12.7117 4.36288 14.3268 7.16308 14.3268C9.09714 14.3268 10.7186 13.6886 11.9039 12.5945L9.57906 10.7907C8.94087 11.2205 8.12684 11.481 7.16308 11.481C5.30062 11.481 3.71822 10.2241 3.15162 8.53096L3.14869 8.52683Z" fill="var(--fill-0, #34A853)"/>
<path id="Vector_3" d="M0.768385 3.95293C0.280001 4.91669 7.7337e-06 6.00424 7.7337e-06 7.16338C7.7337e-06 8.32252 0.280001 9.41007 0.768385 10.3738C0.768385 10.3803 3.15187 8.52438 3.15187 8.52438C3.00861 8.09458 2.92392 7.63876 2.92392 7.16331C2.92392 6.68786 3.00861 6.23204 3.15187 5.80224L0.768385 3.95293Z" fill="var(--fill-0, #FBBC05)"/>
<path id="Vector_4" d="M7.16323 2.85232C8.21821 2.85232 9.15595 3.21699 9.90484 3.92031L11.9561 1.86901C10.7123 0.709869 9.09737 0 7.16323 0C4.36303 0 1.94706 1.6085 0.76836 3.95288L3.15177 5.80233C3.7183 4.10916 5.30077 2.85232 7.16323 2.85232Z" fill="var(--fill-0, #EA4335)"/>
</g>
</svg>
