<svg preserveAspectRatio="none" width="100%" height="100%" overflow="visible" style="display: block;" viewBox="0 0 21.5 21.5" fill="none" xmlns="http://www.w3.org/2000/svg">
<path id="Vector" d="M7.5 12.375L14 15.625M14 5.875L7.5 9.125M17.25 20.5C15.4551 20.5 14 19.0449 14 17.25C14 15.4551 15.4551 14 17.25 14C19.0449 14 20.5 15.4551 20.5 17.25C20.5 19.0449 19.0449 20.5 17.25 20.5ZM4.25 14C2.45507 14 1 12.5449 1 10.75C1 8.95507 2.45507 7.5 4.25 7.5C6.04493 7.5 7.5 8.95507 7.5 10.75C7.5 12.5449 6.04493 14 4.25 14ZM17.25 7.5C15.4551 7.5 14 6.04493 14 4.25C14 2.45507 15.4551 1 17.25 1C19.0449 1 20.5 2.45507 20.5 4.25C20.5 6.04493 19.0449 7.5 17.25 7.5Z" stroke="var(--stroke-0, white)" stroke-width="2" stroke-linecap="round" stroke-linejoin="round"/>
</svg>
