<svg xmlns="http://www.w3.org/2000/svg" xmlns:xlink="http://www.w3.org/1999/xlink" width="500" zoomAndPan="magnify" viewBox="0 0 375 525.000007" height="700" preserveAspectRatio="xMidYMid meet" version="1.0"><defs><clipPath id="5540c8f56a"><path d="M 0.355469 0 L 374.640625 0 L 374.640625 524 L 0.355469 524 Z M 0.355469 0 " clip-rule="nonzero"/></clipPath><clipPath id="51133535a7"><path d="M 75 304 L 374.640625 304 L 374.640625 524 L 75 524 Z M 75 304 " clip-rule="nonzero"/></clipPath><clipPath id="593e4e2dbc"><path d="M 69.375 298 L 374.640625 298 L 374.640625 524 L 69.375 524 Z M 69.375 298 " clip-rule="nonzero"/></clipPath><clipPath id="94a30fb2ad"><path d="M 179 24 L 374.640625 24 L 374.640625 263 L 179 263 Z M 179 24 " clip-rule="nonzero"/></clipPath><clipPath id="2d493ede38"><path d="M 174 19.277344 L 374.640625 19.277344 L 374.640625 269 L 174 269 Z M 174 19.277344 " clip-rule="nonzero"/></clipPath></defs><g clip-path="url(#5540c8f56a)"><path fill="#ffffff" d="M 0.355469 0 L 374.644531 0 L 374.644531 524 L 0.355469 524 Z M 0.355469 0 " fill-opacity="1" fill-rule="nonzero"/><path fill="#ffffff" d="M 0.355469 0 L 374.644531 0 L 374.644531 524 L 0.355469 524 Z M 0.355469 0 " fill-opacity="1" fill-rule="nonzero"/></g><g clip-path="url(#51133535a7)"><path fill="#ffffff" d="M 522.359375 529.4375 L 75.488281 529.4375 C 75.488281 529.4375 81.277344 308.355469 298.925781 304.351562 C 298.925781 304.351562 522.359375 304.152344 522.359375 529.4375 " fill-opacity="1" fill-rule="nonzero"/></g><g clip-path="url(#593e4e2dbc)"><path fill="#292626" d="M 522.359375 529.4375 L 522.359375 523.875 L 75.488281 523.875 L 75.488281 529.4375 L 81.054688 529.59375 L 81.054688 529.484375 C 81.125 526.589844 83.4375 472.03125 111.871094 418.386719 C 126.078125 391.550781 146.695312 364.984375 176.753906 344.847656 C 206.8125 324.710938 246.378906 310.894531 299.015625 309.914062 L 298.925781 304.351562 L 298.925781 309.914062 C 298.925781 309.914062 299.769531 309.914062 301.375 309.980469 C 307.40625 310.183594 324.039062 311.160156 345.503906 315.722656 C 377.722656 322.597656 420.695312 337.59375 455.339844 369.878906 C 472.664062 386.054688 487.980469 406.503906 499.003906 432.625 C 510.046875 458.75 516.792969 490.566406 516.792969 529.4375 L 522.359375 529.4375 L 522.359375 523.875 L 522.359375 529.4375 L 527.925781 529.4375 C 527.949219 472.320312 513.742188 428.933594 492.210938 396.335938 C 476.070312 371.90625 455.898438 353.546875 434.789062 339.839844 C 403.105469 319.28125 369.351562 309.070312 343.433594 303.953125 C 317.515625 298.835938 299.414062 298.789062 298.925781 298.789062 L 298.8125 298.789062 C 243.484375 299.789062 201.113281 314.699219 169.050781 336.617188 C 145.003906 353.058594 126.765625 373.375 112.984375 394.535156 C 92.324219 426.285156 81.613281 459.859375 76.003906 485.539062 C 70.390625 511.238281 69.921875 529.039062 69.921875 529.304688 C 69.878906 530.816406 70.4375 532.265625 71.503906 533.332031 C 72.550781 534.402344 73.976562 535 75.488281 535 L 522.359375 535 C 523.828125 535 525.253906 534.421875 526.300781 533.375 C 527.347656 532.351562 527.925781 530.90625 527.925781 529.4375 L 522.359375 529.4375 " fill-opacity="1" fill-rule="nonzero"/></g><g clip-path="url(#94a30fb2ad)"><path fill="#ffffff" d="M 179.960938 143.769531 C 179.960938 78.109375 233.21875 24.875 298.925781 24.875 C 364.628906 24.875 417.890625 78.109375 417.890625 143.769531 C 417.890625 209.429688 364.628906 262.675781 298.925781 262.675781 C 233.21875 262.675781 179.960938 209.429688 179.960938 143.769531 " fill-opacity="1" fill-rule="nonzero"/></g><g clip-path="url(#2d493ede38)"><path fill="#292626" d="M 179.960938 143.769531 L 185.527344 143.769531 C 185.527344 112.441406 198.195312 84.160156 218.722656 63.625 C 239.277344 43.109375 267.574219 30.425781 298.925781 30.425781 C 330.273438 30.425781 358.574219 43.109375 379.125 63.625 C 399.652344 84.160156 412.324219 112.441406 412.324219 143.769531 C 412.324219 175.078125 399.652344 203.378906 379.125 223.894531 C 358.574219 244.429688 330.253906 257.09375 298.925781 257.113281 C 267.574219 257.09375 239.277344 244.429688 218.746094 223.894531 C 198.195312 203.378906 185.527344 175.078125 185.527344 143.769531 L 174.394531 143.769531 C 174.394531 212.5 230.125 268.21875 298.925781 268.238281 C 367.726562 268.21875 423.457031 212.5 423.457031 143.769531 C 423.457031 75.015625 367.726562 19.3125 298.925781 19.3125 C 230.125 19.3125 174.394531 75.015625 174.394531 143.769531 L 179.960938 143.769531 " fill-opacity="1" fill-rule="nonzero"/></g></svg>